<svg xmlns="http://www.w3.org/2000/svg" version="1.1" xmlns:xlink="http://www.w3.org/1999/xlink" xmlns:svgjs="http://svgjs.dev/svgjs" width="1500" height="1500" viewBox="0 0 1500 1500"><rect width="1500" height="1500" fill="#ed2647"></rect><g transform="matrix(0.6666666666666666,0,0,0.6666666666666666,250.00000000000017,187.66666666666674)"><svg viewBox="0 0 320 360" data-background-color="#ed2647" preserveAspectRatio="xMidYMid meet" height="1687" width="1500" xmlns="http://www.w3.org/2000/svg" xmlns:xlink="http://www.w3.org/1999/xlink"><g id="tight-bounds" transform="matrix(1,0,0,1,0,0)"><svg viewBox="0 0 320 360" height="360" width="320"><g><svg></svg></g><g><svg viewBox="0 0 320 360" height="360" width="320"><g><path d="M20.961 227.22l3.726 4.658-1.863-6.056c-0.466-2.795-3.726 0.466-1.863 1.398M25.153 224.425c1.397 2.329 2.795 4.658 2.795 6.987 0 3.261 2.795 4.658 5.123 5.589-3.261-3.726-5.124-13.974-7.918-12.576M204.017 26.929c7.918 0 15.371-0.932 23.756 0.931 20.495 5.124 37.729 15.371 49.374 29.811l32.606 52.169c1.397 13.042 4.192 27.482 3.726 43.319 3.261 0 2.795-4.658 6.521-5.59-3.726 9.316-5.59 20.961-6.521 34.469-2.329-7.453 0-18.632 0.466-24.687-3.261 5.124-5.124 1.397-5.124-0.932 0.466-3.726-1.397-3.261-2.795-4.658-5.124-4.658-8.384-9.782-12.11-17.7 2.329-6.055 2.795-14.905-4.658-19.563-2.329-1.397-5.124-3.726-6.521-7.453-1.863-5.124-5.124-11.179-4.193-19.097 0.466-2.329-6.987 5.124-11.179 1.863-18.166-12.576-36.332-27.016-58.224-39.127-11.645 0-20.029-4.192-24.221-9.316-3.726-4.658-0.932-10.713 4.658-11.179 3.261 0 6.987-0.932 9.782 0.932 0.466-1.863 2.329-4.192 4.657-4.192M157.904 16.215l0.932 0.466c4.658 0.932 6.987 7.453 12.11 5.124 0 3.261 0.466 6.521-0.466 8.85-1.397 3.726-5.59 3.726-8.85 3.726-31.208-1.863-49.374 11.179-68.471 22.358-5.124 3.261-10.713 5.59-14.906 9.782-20.029 18.632-41.921 35.866-47.045 70.335l-4.192 38.195c-0.466 4.192-5.124 8.384-4.192 13.508l3.26 22.824c-3.261-3.261-5.124 0.932-4.192 2.795 0.466 1.397 2.329 6.055 5.124 1.863 3.726 6.987 7.453 20.495 12.576 26.55 15.837 18.632 36.332 35.4 53.101 52.169 4.192-0.932 7.453-0.932 8.384-3.727 1.397 2.795-1.397 5.59-3.726 6.056 7.453 4.658 15.837 8.85 27.016 9.781 14.44 0.932 27.948 3.261 40.524 6.522 6.521-1.863 13.042-2.795 20.029-3.261 2.329 0 3.726-3.726 6.521-4.658l0.466-4.658c2.795 4.192 2.329-1.397 0.466-4.192 3.261 2.795 4.192 5.124 5.589 6.987 0-1.397 3.726-6.521 3.727-0.466l0.931-6.055c1.397-0.932 1.863 5.124 3.261 0.931 1.397-4.192 4.192-0.932 6.987-2.329-0.932 1.863-0.466 5.59 2.794 3.261l3.727-3.261c2.329 5.59 6.055 3.261 7.918 2.329 20.495-13.042 40.99-28.413 60.553-43.784l-0.466 6.055 2.329-7.453c2.329 2.329 4.192 0.466 5.124-0.931 2.795-4.658 6.521-9.316 12.577-13.508-7.453 20.029-16.303 35.866-27.482 48.908l-4.658 5.59c0 3.261-0.932 7.453-4.658 7.918-1.863 0.466-5.59-0.932-8.384 1.863-1.397 1.863 3.261 5.59-0.466 2.795-3.261-2.329-6.521 0-10.248 0.932-2.795 0.932 1.863 3.726 2.795 5.589 0.932 1.863 1.863 3.726 1.398 6.056l-5.124-5.59c-6.055 3.261-9.782 9.316-14.906 13.974-2.329 1.863-1.397 5.124-1.397 7.918-3.261 0-6.987-0.932-8.85 0.932-1.397 1.863-0.932 4.658-0.932 7.453-4.658-0.466-5.124-7.453-9.315-6.056-4.192 0.932-8.85 1.397-12.577 3.727 2.795 5.59-4.658 2.329-3.726 3.26-6.987-4.192-13.042-7.453-20.495-4.658-15.837-5.124-35.4-2.795-49.84-0.931 0-2.329 0.466-4.658-0.466-5.124-0.932 2.329-3.726 1.397-3.26 1.397-8.85-6.055-17.7-9.782-27.016-14.905-8.384 0.932-16.303-3.261-18.632-5.59-6.521-6.055-13.974-2.795-20.029-4.192-13.042-3.261-17.7-16.769-19.098-26.084-0.932-4.658-4.658-6.521-6.055-6.056-6.055-19.563-15.371-37.263-22.824-55.429-1.863-4.658-1.397-9.316-1.397-14.44 2.329 0.932 4.658 0.466 4.192-2.794-2.329-15.371-7.918-27.016-13.974-38.195 3.261-15.837 3.726-34.469 11.179-48.443 6.521-12.576 18.632-19.098 27.016-29.811 2.795-3.726 2.795-8.85 5.59-12.11 9.316-9.316 18.632-19.098 28.879-27.482 4.658-3.726 10.247 0 17.234-1.397 2.329-8.384 11.645-15.837 20.495-13.508 3.726 0.932 11.179-8.85 13.508-9.782 3.726-1.397 1.863 3.726 1.863 6.987 8.85-6.987 20.961-10.713 32.14-14.906" fill="#ffffff" fill-rule="nonzero" stroke="none" stroke-width="1" stroke-linecap="butt" stroke-linejoin="miter" stroke-miterlimit="10" stroke-dasharray="" stroke-dashoffset="0" font-family="none" font-weight="none" font-size="none" text-anchor="none" style="mix-blend-mode: normal" data-fill-palette-color="tertiary"></path></g><g transform="matrix(1,0,0,1,64,117.3913043478261)"><svg viewBox="0 0 192 125.21739130434783" height="125.21739130434783" width="192"><g><svg viewBox="0 0 192 125.21739130434783" height="125.21739130434783" width="192"><g><svg viewBox="0 0 192 125.21739130434783" height="125.21739130434783" width="192"><g><svg viewBox="0 0 192 125.21739130434783" height="125.21739130434783" width="192"><g id="textblocktransform"><svg viewBox="0 0 192 125.21739130434783" height="125.21739130434783" width="192" id="textblock"><g><svg viewBox="0 0 192 125.21739130434783" height="125.21739130434783" width="192"><g transform="matrix(1,0,0,1,0,0)"><svg width="192" viewBox="3 -36.2 56.35 36.75" height="125.21739130434783" data-palette-color="#ffffff"><path d="M15.45 0.55L15.45 0.55Q13.45 0.55 11.83-0.1 10.2-0.75 8.9-1.4L8.9-1.4Q7.8-2 7.08-2.3 6.35-2.6 5.8-2.6L5.8-2.6Q5.1-2.6 4.83-2.02 4.55-1.45 4.4-0.75L4.4-0.75 4.25 0 3 0 3.25-5.9 3.1-12.35 4.35-12.35 4.9-10Q5.45-7.8 6.88-5.7 8.3-3.6 10.48-2.25 12.65-0.9 15.45-0.9L15.45-0.9Q17-0.9 18.43-1.58 19.85-2.25 20.78-3.65 21.7-5.05 21.7-7.3L21.7-7.3Q21.7-10.65 19.53-12.7 17.35-14.75 13.5-16.6L13.5-16.6 11.4-17.6Q7.65-19.4 5.83-21.58 4-23.75 4-27.15L4-27.15Q4-29.8 5.3-31.85 6.6-33.9 8.88-35.05 11.15-36.2 14.1-36.2L14.1-36.2Q16.15-36.2 17.55-35.65 18.95-35.1 19.75-34.7L19.75-34.7Q21.05-34.05 21.8-34.05L21.8-34.05Q22.6-34.05 22.75-35.6L22.75-35.6 24-35.6 23.85-30.8 23.95-25.95 22.7-25.95Q22.4-28.75 21.15-30.73 19.9-32.7 18.13-33.75 16.35-34.8 14.35-34.8L14.35-34.8Q11.4-34.8 9.58-33.1 7.75-31.4 7.75-28.75L7.75-28.75Q7.75-25.9 9.6-24.28 11.45-22.65 14.4-21.2L14.4-21.2 16.45-20.2Q19.2-18.85 21.18-17.43 23.15-16 24.23-14.1 25.3-12.2 25.3-9.35L25.3-9.35Q25.3-6.4 23.98-4.15 22.65-1.9 20.43-0.68 18.2 0.55 15.45 0.55ZM37.45 0L30.05 0.15 30.05-1.1 31.05-1.2Q32.8-1.4 33.72-1.73 34.65-2.05 35-3.13 35.35-4.2 35.35-6.65L35.35-6.65 35.35-28.85Q35.35-31.35 35-32.4 34.65-33.45 33.72-33.77 32.8-34.1 31.05-34.3L31.05-34.3 30.05-34.4 30.05-35.65 37.45-35.5 43.55-35.5Q44.9-35.5 46.7-35.4 48.5-35.3 50.32-34.93 52.15-34.55 53.72-33.68 55.3-32.8 56.27-31.28 57.25-29.75 57.25-27.35L57.25-27.35Q57.25-25.05 56.17-23.4 55.1-21.75 53.47-20.68 51.85-19.6 50.1-19L50.1-19Q52.5-18.8 54.6-17.9 56.7-17 58.02-15.13 59.35-13.25 59.35-10.1L59.35-10.1Q59.35-7.2 58.22-5.23 57.1-3.25 55.2-2.13 53.3-1 51-0.5 48.7 0 46.35 0L46.35 0 37.45 0ZM45.05-34.1L45.05-34.1 39.4-34.1 39.4-19.35 46.05-19.35Q49.15-19.35 50.87-21.35 52.6-23.35 52.6-27.35L52.6-27.35Q52.6-30.2 51.7-31.65 50.8-33.1 49.12-33.6 47.45-34.1 45.05-34.1ZM43.55-1.4L43.55-1.4 46.35-1.4Q48.85-1.4 50.72-2.1 52.6-2.8 53.62-4.67 54.65-6.55 54.65-10.05L54.65-10.05Q54.65-13.45 53.5-15.15 52.35-16.85 50-17.4 47.65-17.95 44.05-17.95L44.05-17.95 39.4-17.95 39.4-6.45Q39.4-3.45 40.42-2.43 41.45-1.4 43.55-1.4Z" opacity="1" transform="matrix(1,0,0,1,0,0)" fill="#ffffff" class="wordmark-text-0" data-fill-palette-color="primary" id="text-0"></path></svg></g></svg></g></svg></g></svg></g><g></g></svg></g></svg></g></svg></g></svg></g><defs></defs></svg><rect width="320" height="360" fill="none" stroke="none" visibility="hidden"></rect></g></svg></g></svg>